<svg width="332" height="332" viewBox="0 0 332 332" fill="none" xmlns="http://www.w3.org/2000/svg">
<g clip-path="url(#clip0)">
<g filter="url(#filter0_i)">
<path d="M318.383 166C318.383 250.159 250.159 318.383 166 318.383C81.8413 318.383 13.6172 250.159 13.6172 166C13.6172 81.8413 81.8413 13.6172 166 13.6172C250.159 13.6172 318.383 81.8413 318.383 166ZM44.0938 166C44.0938 233.327 98.673 287.906 166 287.906C233.327 287.906 287.906 233.327 287.906 166C287.906 98.673 233.327 44.0938 166 44.0938C98.673 44.0938 44.0938 98.673 44.0938 166Z" fill="url(#paint0_linear)"/>
</g>
<g clip-path="url(#clip1)">
<g filter="url(#filter1_i)">
<g filter="url(#filter2_i)">
<path d="M196.928 132.995C196.928 144.967 190.325 155.399 180.554 160.832C198.742 230.844 198.742 230.844 198.742 230.844C198.742 230.844 136.676 230.844 134.283 230.844C153.173 162.532 134.283 230.844 153.173 162.532C141.502 157.819 133.249 146.366 133.249 132.995C133.249 115.407 147.5 101.156 165.086 101.156C182.677 101.156 196.928 115.407 196.928 132.995Z" fill="url(#paint1_linear)"/>
</g>
</g>
</g>
</g>
<defs>
<filter id="filter0_i" x="13.6172" y="13.6172" width="306.062" height="306.062" filterUnits="userSpaceOnUse" color-interpolation-filters="sRGB">
<feFlood flood-opacity="0" result="BackgroundImageFix"/>
<feBlend mode="normal" in="SourceGraphic" in2="BackgroundImageFix" result="shape"/>
<feColorMatrix in="SourceAlpha" type="matrix" values="0 0 0 0 0 0 0 0 0 0 0 0 0 0 0 0 0 0 127 0" result="hardAlpha"/>
<feOffset dx="1.29688" dy="1.29688"/>
<feGaussianBlur stdDeviation="1.29688"/>
<feComposite in2="hardAlpha" operator="arithmetic" k2="-1" k3="1"/>
<feColorMatrix type="matrix" values="0 0 0 0 0 0 0 0 0 0 0 0 0 0 0 0 0 0 0.25 0"/>
<feBlend mode="normal" in2="shape" result="effect1_innerShadow"/>
</filter>
<filter id="filter1_i" x="133.249" y="101.156" width="66.79" height="130.984" filterUnits="userSpaceOnUse" color-interpolation-filters="sRGB">
<feFlood flood-opacity="0" result="BackgroundImageFix"/>
<feBlend mode="normal" in="SourceGraphic" in2="BackgroundImageFix" result="shape"/>
<feColorMatrix in="SourceAlpha" type="matrix" values="0 0 0 0 0 0 0 0 0 0 0 0 0 0 0 0 0 0 127 0" result="hardAlpha"/>
<feOffset dx="1.29688" dy="1.29688"/>
<feGaussianBlur stdDeviation="0.648438"/>
<feComposite in2="hardAlpha" operator="arithmetic" k2="-1" k3="1"/>
<feColorMatrix type="matrix" values="0 0 0 0 0 0 0 0 0 0 0 0 0 0 0 0 0 0 0.2 0"/>
<feBlend mode="normal" in2="shape" result="effect1_innerShadow"/>
</filter>
<filter id="filter2_i" x="133.249" y="101.156" width="65.4932" height="133.688" filterUnits="userSpaceOnUse" color-interpolation-filters="sRGB">
<feFlood flood-opacity="0" result="BackgroundImageFix"/>
<feBlend mode="normal" in="SourceGraphic" in2="BackgroundImageFix" result="shape"/>
<feColorMatrix in="SourceAlpha" type="matrix" values="0 0 0 0 0 0 0 0 0 0 0 0 0 0 0 0 0 0 127 0" result="hardAlpha"/>
<feOffset dy="4"/>
<feGaussianBlur stdDeviation="2"/>
<feComposite in2="hardAlpha" operator="arithmetic" k2="-1" k3="1"/>
<feColorMatrix type="matrix" values="0 0 0 0 0 0 0 0 0 0 0 0 0 0 0 0 0 0 0.25 0"/>
<feBlend mode="normal" in2="shape" result="effect1_innerShadow"/>
</filter>
<linearGradient id="paint0_linear" x1="166" y1="13.6172" x2="166" y2="318.383" gradientUnits="userSpaceOnUse">
<stop stop-color="#9853F1" stop-opacity="0.904167"/>
<stop offset="0.520833" stop-color="#EF6262" stop-opacity="0.95408"/>
<stop offset="1" stop-color="#2F81EE"/>
</linearGradient>
<linearGradient id="paint1_linear" x1="165.995" y1="101.156" x2="165.995" y2="230.844" gradientUnits="userSpaceOnUse">
<stop stop-color="#9853F1" stop-opacity="0.904167"/>
<stop offset="0.520833" stop-color="#F15C53" stop-opacity="0.904167"/>
<stop offset="1" stop-color="#2F81EE"/>
</linearGradient>
<clipPath id="clip0">
<rect width="332" height="332" fill="white"/>
</clipPath>
<clipPath id="clip1">
<rect width="129.688" height="129.688" fill="white" transform="translate(101.156 101.156)"/>
</clipPath>
</defs>
</svg>
