<svg width="32" height="32" xmlns="http://www.w3.org/2000/svg">

 <g>
  <title>background</title>
  <rect fill="none" id="canvas_background" height="402" width="582" y="-1" x="-1"/>
 </g>
 <g>
  <title>Layer 1</title>
  <path fill="#ff007f" id="svg_2" d="m14,3l-10,0c-0.6,0 -1,0.4 -1,1l0,10c0,0.6 0.4,1 1,1l10,0c0.6,0 1,-0.4 1,-1l0,-10c0,-0.6 -0.4,-1 -1,-1z"/>
  <path fill="#ff007f" id="svg_3" d="m14,17l-10,0c-0.6,0 -1,0.4 -1,1l0,10c0,0.6 0.4,1 1,1l10,0c0.6,0 1,-0.4 1,-1l0,-10c0,-0.6 -0.4,-1 -1,-1z"/>
  <path fill="#ff007f" id="svg_4" d="m28,3l-10,0c-0.6,0 -1,0.4 -1,1l0,10c0,0.6 0.4,1 1,1l10,0c0.6,0 1,-0.4 1,-1l0,-10c0,-0.6 -0.4,-1 -1,-1z"/>
  <path fill="#ff007f" id="svg_5" d="m28,17l-10,0c-0.6,0 -1,0.4 -1,1l0,10c0,0.6 0.4,1 1,1l10,0c0.6,0 1,-0.4 1,-1l0,-10c0,-0.6 -0.4,-1 -1,-1z"/>
 </g>
</svg>