<svg width="32" height="32" xmlns="http://www.w3.org/2000/svg">

 <g>
  <title>background</title>
  <rect fill="none" id="canvas_background" height="402" width="582" y="-1" x="-1"/>
 </g>
 <g>
  <title>Layer 1</title>
  <path id="svg_2" fill="#EA3939" d="m26.737,4.375c2.842,2.917 4.264,6.75 4.264,11.5c0,4.334 -1.422,8.104 -4.264,11.312c-2.842,3.209 -6.442,4.813 -10.799,4.813c-4.316,0 -7.885,-1.604 -10.706,-4.812c-2.822,-3.209 -4.232,-6.979 -4.232,-11.313c0,-4.75 1.39,-8.583 4.171,-11.5c2.779,-2.916 6.369,-4.375 10.767,-4.375c4.357,0 7.957,1.459 10.799,4.375zm-5.446,6.687c-0.124,-1.291 -0.373,-2.552 -0.747,-3.781c-0.373,-1.229 -0.944,-2.177 -1.711,-2.844c-0.769,-0.666 -1.733,-1 -2.895,-1c-1.162,0 -2.116,0.323 -2.863,0.969c-0.747,0.647 -1.297,1.594 -1.649,2.844s-0.591,2.5 -0.716,3.75c-0.124,1.25 -0.187,2.771 -0.187,4.562c0,1.125 0.021,2.073 0.062,2.844c0.04,0.771 0.113,1.709 0.218,2.812c0.103,1.104 0.27,2.031 0.498,2.781c0.228,0.75 0.538,1.49 0.934,2.219c0.394,0.729 0.902,1.281 1.524,1.656s1.348,0.562 2.179,0.562c0.829,0 1.565,-0.188 2.21,-0.562c0.643,-0.375 1.161,-0.927 1.556,-1.656c0.394,-0.728 0.716,-1.468 0.965,-2.218s0.436,-1.677 0.56,-2.781c0.125,-1.104 0.197,-2.052 0.219,-2.844c0.02,-0.791 0.03,-1.729 0.03,-2.812c0,-1.709 -0.062,-3.209 -0.187,-4.501z"/>
 </g>
</svg>