<svg width="32" height="32" xmlns="http://www.w3.org/2000/svg">

 <g>
  <title>background</title>
  <rect fill="none" id="canvas_background" height="402" width="582" y="-1" x="-1"/>
 </g>
 <g>
  <title>Layer 1</title>
  <path id="svg_2" fill="#ea3939" d="m16,24.188c-1.625,0 -3.104,-0.438 -4.438,-1.312c-1.334,-0.875 -2.334,-2 -3,-3.375l-6.562,-11.501c-1.375,2.459 -2,5.209 -2,8c0,4 1.302,7.49 3.906,10.469c2.604,2.979 5.844,4.76 9.719,5.344l4.641,-8.031c-0.467,0.137 -1.246,0.406 -2.266,0.406z"/>
  <path id="svg_3" fill="#ea3939" d="m10.969,9.531c1.478,-1.145 3.156,-1.531 5.031,-1.531c0.25,0 13.75,0 13.75,0c-1.417,-2.416 -3.344,-4.458 -5.781,-5.875c-2.438,-1.416 -5.094,-2.125 -7.969,-2.125c-2.5,0 -4.834,0.531 -7,1.594c-2.167,1.062 -4.172,2.609 -5.641,4.594l4.641,7.812c0.458,-1.791 1.489,-3.322 2.969,-4.469z"/>
  <path id="svg_4" fill="#ea3939" d="m30.797,10l-9.297,0c1.625,1.625 2.688,3.709 2.688,6c0,1.709 -0.479,3.271 -1.438,4.688l-6.562,11.312c4.375,-0.042 8.104,-1.625 11.188,-4.75c3.082,-3.125 4.624,-6.875 4.624,-11.25c0,-2.041 -0.344,-4.188 -1.203,-6z"/>
  <circle id="svg_5" r="6" fill="#ea3939" cy="16" cx="16"/>
 </g>
</svg>