<svg width="520" height="520" viewBox="0 0 520 520" fill="none" xmlns="http://www.w3.org/2000/svg">
<g filter="url(#filter0_bf)">
<rect x="4" y="4" width="512" height="512" rx="20" fill="#2C5DF2" fill-opacity="0.15"/>
<path d="M340 292C337.899 291.999 335.817 292.412 333.876 293.216C331.934 294.019 330.17 295.198 328.684 296.684C327.198 298.17 326.019 299.934 325.216 301.876C324.412 303.817 323.999 305.899 324 308V356H164V196H212C216.243 196 220.313 194.314 223.314 191.314C226.314 188.313 228 184.243 228 180C228 175.757 226.314 171.687 223.314 168.686C220.313 165.686 216.243 164 212 164H148C145.899 163.999 143.817 164.412 141.876 165.216C139.934 166.019 138.17 167.198 136.684 168.684C135.198 170.17 134.019 171.934 133.216 173.876C132.412 175.817 131.999 177.899 132 180V372C131.999 374.102 132.412 376.183 133.216 378.124C134.019 380.066 135.198 381.83 136.684 383.316C138.17 384.802 139.934 385.981 141.876 386.785C143.817 387.588 145.899 388.001 148 388H340C342.101 388.001 344.183 387.588 346.124 386.785C348.066 385.981 349.83 384.802 351.316 383.316C352.802 381.83 353.981 380.066 354.785 378.124C355.588 376.183 356.001 374.102 356 372V308C356.001 305.899 355.588 303.817 354.785 301.876C353.981 299.934 352.802 298.17 351.316 296.684C349.83 295.198 348.066 294.019 346.124 293.216C344.183 292.412 342.101 291.999 340 292Z" fill="#2C5DF2"/>
<path d="M383.313 168.687L351.313 136.687C349.827 135.201 348.064 134.023 346.123 133.218C344.182 132.414 342.101 132 340 132C337.899 132 335.818 132.414 333.877 133.218C331.936 134.023 330.173 135.201 328.687 136.687L232.687 232.687C231.201 234.173 230.022 235.936 229.218 237.877C228.414 239.818 228 241.899 228 244V276C227.999 278.101 228.412 280.183 229.216 282.124C230.019 284.066 231.198 285.83 232.684 287.316C234.17 288.802 235.934 289.981 237.876 290.784C239.817 291.588 241.899 292.001 244 292H276C278.101 292 280.182 291.587 282.123 290.782C284.064 289.978 285.827 288.799 287.313 287.313L383.313 191.313C384.799 189.827 385.977 188.064 386.782 186.123C387.586 184.182 388 182.101 388 180C388 177.899 387.586 175.818 386.782 173.877C385.977 171.936 384.799 170.173 383.313 168.687ZM269.375 260H260V250.625L340 170.625L349.375 180L269.375 260Z" fill="#2C5DF2"/>
</g>
<defs>
<filter id="filter0_bf" x="-26" y="-26" width="572" height="572" filterUnits="userSpaceOnUse" color-interpolation-filters="sRGB">
<feFlood flood-opacity="0" result="BackgroundImageFix"/>
<feGaussianBlur in="BackgroundImage" stdDeviation="15"/>
<feComposite in2="SourceAlpha" operator="in" result="effect1_backgroundBlur"/>
<feBlend mode="normal" in="SourceGraphic" in2="effect1_backgroundBlur" result="shape"/>
<feGaussianBlur stdDeviation="2" result="effect2_foregroundBlur"/>
</filter>
</defs>
</svg>
