<svg width="520" height="520" viewBox="0 0 520 520" fill="none" xmlns="http://www.w3.org/2000/svg">
<g filter="url(#filter0_bf)">
<rect x="4" y="4" width="512" height="512" rx="20" fill="#0ED100" fill-opacity="0.15"/>
<path d="M324 277.189L278.926 299.771C277.536 300.574 275.959 300.996 274.354 300.996C272.749 300.996 271.173 300.574 269.783 299.771C250.465 286.411 233.736 269.651 220.411 250.309C219.609 248.919 219.187 247.342 219.187 245.737C219.187 244.132 219.609 242.556 220.411 241.166L242.811 196L210.811 132H132V141.143C132 206.613 158.008 269.403 204.303 315.697C250.597 361.992 313.387 388 378.857 388H388V309.189L324 277.189ZM369.714 369.714C312.24 367.458 257.729 343.615 217.057 302.943C176.385 262.271 152.542 207.76 150.286 150.286H199.474L222.331 196L204.046 232.571C201.897 236.892 200.926 241.703 201.231 246.519C201.536 251.335 203.106 255.985 205.783 260C220.328 281.464 238.708 300.061 260 314.857C264.015 317.534 268.665 319.104 273.481 319.409C278.297 319.714 283.108 318.743 287.429 316.594L324 298.309L369.714 321.166V369.714Z" fill="#0ED100"/>
</g>
<defs>
<filter id="filter0_bf" x="-26" y="-26" width="572" height="572" filterUnits="userSpaceOnUse" color-interpolation-filters="sRGB">
<feFlood flood-opacity="0" result="BackgroundImageFix"/>
<feGaussianBlur in="BackgroundImage" stdDeviation="15"/>
<feComposite in2="SourceAlpha" operator="in" result="effect1_backgroundBlur"/>
<feBlend mode="normal" in="SourceGraphic" in2="effect1_backgroundBlur" result="shape"/>
<feGaussianBlur stdDeviation="2" result="effect2_foregroundBlur"/>
</filter>
</defs>
</svg>
