<svg width="520" height="520" viewBox="0 0 520 520" fill="none" xmlns="http://www.w3.org/2000/svg">
<g filter="url(#filter0_bf)">
<rect x="4" y="4" width="512" height="512" rx="20" fill="#F2852C" fill-opacity="0.15"/>
<path d="M279.24 388H240.792C238.432 388.001 236.155 387.128 234.401 385.55C232.646 383.972 231.538 381.8 231.289 379.454L228.443 352.65C224.468 351.298 220.586 349.69 216.82 347.836L195.873 364.775C194.039 366.252 191.725 366.999 189.375 366.875C187.024 366.75 184.802 365.762 183.135 364.1L155.947 336.915C154.285 335.248 153.296 333.026 153.172 330.676C153.047 328.325 153.795 326.011 155.272 324.178L172.219 303.208C170.362 299.443 168.751 295.56 167.398 291.586L140.547 288.72C138.201 288.472 136.031 287.365 134.453 285.612C132.875 283.859 132.001 281.584 132 279.225V240.775C132.001 238.416 132.875 236.141 134.453 234.388C136.031 232.635 138.201 231.528 140.547 231.28L167.353 228.433C168.707 224.459 170.317 220.577 172.174 216.811L155.227 195.841C153.75 194.008 153.003 191.694 153.127 189.343C153.252 186.993 154.24 184.771 155.902 183.104L183.09 155.919C184.757 154.257 186.979 153.269 189.33 153.144C191.681 153.02 193.995 153.767 195.828 155.244L216.8 172.183C220.567 170.329 224.449 168.721 228.424 167.369L231.27 140.565C231.515 138.212 232.624 136.033 234.383 134.451C236.142 132.869 238.426 131.995 240.792 132H279.24C281.6 131.999 283.876 132.872 285.631 134.45C287.385 136.028 288.494 138.2 288.742 140.546L291.583 167.35C295.559 168.702 299.444 170.31 303.212 172.164L324.178 155.225C326.012 153.748 328.326 153.001 330.676 153.125C333.027 153.25 335.249 154.238 336.916 155.9L364.104 183.085C365.766 184.752 366.754 186.974 366.879 189.324C367.004 191.675 366.256 193.989 364.779 195.822L347.832 216.792C349.687 220.559 351.297 224.441 352.653 228.414L379.459 231.26C381.804 231.51 383.973 232.618 385.55 234.371C387.126 236.124 387.999 238.398 388 240.755V279.206C388.005 281.563 387.137 283.839 385.566 285.595C383.994 287.351 381.828 288.464 379.485 288.72L352.679 291.567C351.322 295.54 349.712 299.422 347.857 303.189L364.805 324.159C366.281 325.992 367.029 328.306 366.905 330.656C366.78 333.007 365.792 335.229 364.13 336.895L336.941 364.1C335.274 365.762 333.052 366.75 330.702 366.875C328.351 366.999 326.037 366.252 324.204 364.775L303.238 347.836C299.469 349.69 295.585 351.298 291.608 352.65L288.768 379.454C288.519 381.805 287.407 383.98 285.647 385.558C283.887 387.137 281.604 388.007 279.24 388V388ZM249.37 368.895H270.636L273.241 344.34C273.445 342.418 274.228 340.603 275.485 339.135C276.743 337.667 278.416 336.615 280.285 336.119C287.014 334.324 293.473 331.641 299.493 328.139C301.169 327.163 303.102 326.72 305.036 326.869C306.97 327.018 308.813 327.752 310.32 328.974L329.528 344.493L344.565 329.457L329.019 310.308C327.797 308.802 327.063 306.959 326.914 305.026C326.764 303.092 327.208 301.158 328.184 299.483C331.679 293.468 334.354 287.013 336.139 280.289C336.636 278.42 337.689 276.746 339.158 275.489C340.628 274.231 342.444 273.449 344.367 273.246L368.919 270.635V249.372L344.367 246.761C342.444 246.557 340.628 245.775 339.158 244.518C337.689 243.26 336.636 241.586 336.139 239.717C334.355 232.992 331.679 226.534 328.184 220.517C327.208 218.842 326.764 216.908 326.914 214.974C327.063 213.041 327.797 211.198 329.019 209.692L344.539 190.485L329.503 175.45L310.294 190.969C308.788 192.191 306.945 192.925 305.011 193.074C303.077 193.223 301.143 192.78 299.467 191.803C293.45 188.312 286.995 185.637 280.272 183.85C278.404 183.353 276.73 182.301 275.473 180.833C274.215 179.365 273.432 177.55 273.228 175.628L270.649 151.104H249.37L246.766 175.66C246.561 177.583 245.777 179.398 244.518 180.866C243.259 182.334 241.585 183.386 239.715 183.881C232.997 185.677 226.548 188.36 220.539 191.861C218.863 192.837 216.929 193.28 214.995 193.131C213.061 192.982 211.219 192.248 209.712 191.026L190.523 175.482L175.492 190.517L191.02 209.723C192.24 211.23 192.974 213.073 193.121 215.007C193.269 216.941 192.825 218.874 191.848 220.549C188.358 226.567 185.683 233.021 183.893 239.743C183.396 241.611 182.344 243.284 180.876 244.542C179.408 245.799 177.593 246.582 175.671 246.786L151.113 249.397V270.654L175.671 273.265C177.593 273.469 179.408 274.252 180.876 275.509C182.344 276.767 183.396 278.44 183.893 280.308C185.683 287.023 188.356 293.471 191.841 299.483C192.819 301.158 193.263 303.091 193.115 305.025C192.967 306.958 192.234 308.801 191.013 310.308L175.492 329.483L190.529 344.518L209.744 328.999C211.25 327.777 213.093 327.043 215.027 326.894C216.961 326.745 218.895 327.188 220.571 328.165C226.585 331.657 233.038 334.332 239.76 336.119C241.629 336.614 243.304 337.666 244.563 339.134C245.822 340.602 246.605 342.417 246.81 344.34L249.37 368.895Z" fill="#F2852C"/>
<path d="M260.013 318.179C248.505 318.178 237.256 314.765 227.688 308.371C218.121 301.978 210.664 292.891 206.261 282.26C201.858 271.629 200.707 259.931 202.953 248.646C205.198 237.361 210.741 226.995 218.878 218.859C227.016 210.723 237.383 205.182 248.67 202.938C259.957 200.694 271.656 201.846 282.287 206.25C292.919 210.653 302.006 218.11 308.399 227.678C314.792 237.245 318.204 248.493 318.204 260C318.188 275.426 312.051 290.215 301.141 301.123C290.232 312.03 275.44 318.164 260.013 318.179V318.179ZM260.013 220.925C252.284 220.926 244.729 223.219 238.303 227.513C231.878 231.808 226.87 237.911 223.913 245.051C220.956 252.191 220.183 260.048 221.692 267.627C223.2 275.206 226.923 282.168 232.388 287.632C237.854 293.097 244.817 296.817 252.398 298.325C259.978 299.832 267.835 299.058 274.975 296.1C282.116 293.142 288.219 288.134 292.512 281.708C296.806 275.283 299.098 267.728 299.098 260C299.086 249.639 294.964 239.706 287.637 232.381C280.309 225.055 270.375 220.935 260.013 220.925V220.925Z" fill="#F2852C"/>
</g>
<defs>
<filter id="filter0_bf" x="-26" y="-26" width="572" height="572" filterUnits="userSpaceOnUse" color-interpolation-filters="sRGB">
<feFlood flood-opacity="0" result="BackgroundImageFix"/>
<feGaussianBlur in="BackgroundImage" stdDeviation="15"/>
<feComposite in2="SourceAlpha" operator="in" result="effect1_backgroundBlur"/>
<feBlend mode="normal" in="SourceGraphic" in2="effect1_backgroundBlur" result="shape"/>
<feGaussianBlur stdDeviation="2" result="effect2_foregroundBlur"/>
</filter>
</defs>
</svg>
