<svg width="520" height="520" viewBox="0 0 520 520" fill="none" xmlns="http://www.w3.org/2000/svg">
<g filter="url(#filter0_bf)">
<rect x="4" y="4" width="512" height="512" rx="20" fill="#F2852C" fill-opacity="0.15"/>
<path d="M260 132C189.303 132 132 189.303 132 260C132 330.697 189.303 388 260 388C330.697 388 388 330.697 388 260C388 189.303 330.697 132 260 132ZM371.277 255.871H321.762C321.308 237.579 318.054 220.105 312.282 204.109C323.43 199.46 333.736 193.275 343.134 185.966C359.84 204.721 370.286 229.074 371.277 255.871ZM255.433 371.253C241.708 359.823 230.197 344.984 221.773 327.749C232.583 324.372 244.037 322.522 255.871 322.142V371.269C255.722 371.269 255.582 371.261 255.433 371.253ZM264.55 148.747C280.125 161.713 292.834 179.079 301.431 199.336C289.655 203.358 277.144 205.695 264.121 206.108V148.723C264.278 148.731 264.41 148.739 264.55 148.747ZM278.308 150.151C301.1 153.942 321.547 164.586 337.469 179.996C328.823 186.627 319.375 192.243 309.16 196.495C301.645 178.683 291.1 162.935 278.308 150.151ZM255.871 148.723V206.108C242.848 205.687 230.329 203.358 218.561 199.336C227.158 179.079 239.867 161.713 255.442 148.747C255.59 148.739 255.722 148.731 255.871 148.723ZM210.831 196.504C200.633 192.251 191.177 186.635 182.531 180.004C198.444 164.595 218.9 153.95 241.692 150.159C228.892 162.935 218.355 178.683 210.831 196.504ZM215.448 206.95C228.182 211.368 241.75 213.945 255.871 214.374V255.871H206.496C206.942 238.579 210.006 222.054 215.448 206.95ZM255.871 264.129V313.884C242.848 314.28 230.254 316.411 218.388 320.234C211.236 303.206 207.016 284.237 206.496 264.129H255.871ZM241.692 369.849C221.27 366.455 202.722 357.561 187.643 344.645C195.777 339.005 204.572 334.232 213.97 330.606C221.171 345.537 230.593 358.791 241.692 369.849ZM264.129 371.277V322.15C275.955 322.53 287.417 324.38 298.227 327.757C289.795 344.992 278.292 359.832 264.567 371.261C264.426 371.261 264.278 371.269 264.129 371.277ZM306.03 330.606C315.42 334.232 324.206 339.013 332.357 344.645C317.278 357.553 298.73 366.455 278.308 369.849C289.407 358.791 298.821 345.537 306.03 330.606ZM301.612 320.234C289.737 316.411 277.144 314.28 264.129 313.884V264.129H313.504C312.984 284.237 308.756 303.206 301.612 320.234ZM264.129 255.871V214.374C278.242 213.945 291.81 211.377 304.552 206.958C309.986 222.062 313.05 238.587 313.504 255.879H264.129V255.871ZM176.874 185.966C186.272 193.275 196.578 199.46 207.718 204.109C201.946 220.105 198.692 237.579 198.238 255.871H148.723C149.714 229.074 160.16 204.721 176.874 185.966ZM148.723 264.129H198.238C198.75 285.228 203.16 305.155 210.65 323.067C200.187 327.146 190.434 332.58 181.433 339.013C162.043 319.714 149.804 293.33 148.723 264.129ZM338.567 339.005C329.566 332.58 319.813 327.138 309.342 323.059C316.84 305.147 321.242 285.22 321.762 264.121H371.277C370.196 293.33 357.949 319.714 338.567 339.005Z" fill="#F2852C"/>
</g>
<defs>
<filter id="filter0_bf" x="-26" y="-26" width="572" height="572" filterUnits="userSpaceOnUse" color-interpolation-filters="sRGB">
<feFlood flood-opacity="0" result="BackgroundImageFix"/>
<feGaussianBlur in="BackgroundImage" stdDeviation="15"/>
<feComposite in2="SourceAlpha" operator="in" result="effect1_backgroundBlur"/>
<feBlend mode="normal" in="SourceGraphic" in2="effect1_backgroundBlur" result="shape"/>
<feGaussianBlur stdDeviation="2" result="effect2_foregroundBlur"/>
</filter>
</defs>
</svg>
