<svg width="137" height="47" viewBox="0 0 137 47" fill="none" xmlns="http://www.w3.org/2000/svg">
<g filter="url(#filter0_d)">
<rect x="4" width="129" height="39" rx="19.5" fill="black"/>
</g>
<path d="M44.2637 19.3887L42.5254 21.1953V26H40.6504V11.7812H42.5254V18.8125L48.8438 11.7812H51.1094L45.5137 18.0605L51.5488 26H49.3027L44.2637 19.3887ZM57.0371 26.1953C55.6048 26.1953 54.4395 25.7266 53.541 24.7891C52.6426 23.8451 52.1934 22.5853 52.1934 21.0098V20.6777C52.1934 19.6296 52.3919 18.6953 52.7891 17.875C53.1927 17.0482 53.7526 16.4036 54.4688 15.9414C55.1914 15.4727 55.9727 15.2383 56.8125 15.2383C58.1862 15.2383 59.2539 15.6908 60.0156 16.5957C60.7773 17.5007 61.1582 18.7962 61.1582 20.4824V21.2344H54C54.026 22.276 54.3288 23.1191 54.9082 23.7637C55.4941 24.4017 56.2363 24.7207 57.1348 24.7207C57.7728 24.7207 58.3132 24.5905 58.7559 24.3301C59.1986 24.0697 59.5859 23.7246 59.918 23.2949L61.0215 24.1543C60.1361 25.515 58.8079 26.1953 57.0371 26.1953ZM56.8125 16.7227C56.0833 16.7227 55.4714 16.9896 54.9766 17.5234C54.4818 18.0508 54.1758 18.793 54.0586 19.75H59.3516V19.6133C59.2995 18.6953 59.0521 17.9857 58.6094 17.4844C58.1667 16.9766 57.5677 16.7227 56.8125 16.7227ZM66.5781 23.3535L69.0391 15.4336H70.9727L66.7246 27.6309C66.0671 29.3887 65.0221 30.2676 63.5898 30.2676L63.248 30.2383L62.5742 30.1113V28.6465L63.0625 28.6855C63.6745 28.6855 64.1497 28.5618 64.4883 28.3145C64.8333 28.0671 65.1165 27.6146 65.3379 26.957L65.7383 25.8828L61.9688 15.4336H63.9414L66.5781 23.3535ZM83.8145 19.3496C83.8145 20.7428 83.5801 21.9603 83.1113 23.002C82.6426 24.0371 81.9785 24.8281 81.1191 25.375C80.2598 25.9219 79.2572 26.1953 78.1113 26.1953C76.9915 26.1953 75.9987 25.9219 75.1328 25.375C74.2669 24.8216 73.5931 24.0371 73.1113 23.0215C72.6361 21.9993 72.3919 20.8177 72.3789 19.4766V18.4512C72.3789 17.084 72.6165 15.8763 73.0918 14.8281C73.5671 13.7799 74.2376 12.9792 75.1035 12.4258C75.9759 11.8659 76.972 11.5859 78.0918 11.5859C79.2311 11.5859 80.2337 11.8626 81.0996 12.416C81.972 12.9629 82.6426 13.7604 83.1113 14.8086C83.5801 15.8503 83.8145 17.0645 83.8145 18.4512V19.3496ZM81.9492 18.4316C81.9492 16.7454 81.6107 15.4531 80.9336 14.5547C80.2565 13.6497 79.3092 13.1973 78.0918 13.1973C76.9069 13.1973 75.9727 13.6497 75.2891 14.5547C74.612 15.4531 74.2637 16.7031 74.2441 18.3047V19.3496C74.2441 20.9837 74.5859 22.2695 75.2695 23.207C75.9596 24.138 76.9069 24.6035 78.1113 24.6035C79.3223 24.6035 80.2598 24.1641 80.9238 23.2852C81.5879 22.3997 81.9297 21.1335 81.9492 19.4863V18.4316ZM90.8164 19.6621C89.2083 19.1999 88.0365 18.6335 87.3008 17.9629C86.5716 17.2858 86.207 16.4525 86.207 15.4629C86.207 14.3431 86.653 13.4186 87.5449 12.6895C88.4434 11.9538 89.6087 11.5859 91.041 11.5859C92.0176 11.5859 92.8867 11.7747 93.6484 12.1523C94.4167 12.5299 95.0091 13.0508 95.4258 13.7148C95.849 14.3789 96.0605 15.1048 96.0605 15.8926H94.1758C94.1758 15.0332 93.9023 14.3594 93.3555 13.8711C92.8086 13.3763 92.0371 13.1289 91.041 13.1289C90.1165 13.1289 89.3939 13.334 88.873 13.7441C88.3587 14.1478 88.1016 14.7109 88.1016 15.4336C88.1016 16.013 88.3457 16.5046 88.834 16.9082C89.3288 17.3053 90.1654 17.6699 91.3438 18.002C92.5286 18.334 93.4531 18.7018 94.1172 19.1055C94.7878 19.5026 95.2826 19.9681 95.6016 20.502C95.9271 21.0358 96.0898 21.6641 96.0898 22.3867C96.0898 23.5391 95.6406 24.4635 94.7422 25.1602C93.8438 25.8503 92.6426 26.1953 91.1387 26.1953C90.1621 26.1953 89.2507 26.0098 88.4043 25.6387C87.5579 25.2611 86.9036 24.7467 86.4414 24.0957C85.9857 23.4447 85.7578 22.7057 85.7578 21.8789H87.6426C87.6426 22.7383 87.9583 23.4186 88.5898 23.9199C89.2279 24.4147 90.0775 24.6621 91.1387 24.6621C92.1283 24.6621 92.8867 24.4603 93.4141 24.0566C93.9414 23.653 94.2051 23.1029 94.2051 22.4062C94.2051 21.7096 93.9609 21.1725 93.4727 20.7949C92.9844 20.4108 92.099 20.0332 90.8164 19.6621Z" fill="white" fill-opacity="0.9"/>
<defs>
<filter id="filter0_d" x="0" y="0" width="137" height="47" filterUnits="userSpaceOnUse" color-interpolation-filters="sRGB">
<feFlood flood-opacity="0" result="BackgroundImageFix"/>
<feColorMatrix in="SourceAlpha" type="matrix" values="0 0 0 0 0 0 0 0 0 0 0 0 0 0 0 0 0 0 127 0"/>
<feOffset dy="4"/>
<feGaussianBlur stdDeviation="2"/>
<feColorMatrix type="matrix" values="0 0 0 0 0 0 0 0 0 0 0 0 0 0 0 0 0 0 0.25 0"/>
<feBlend mode="normal" in2="BackgroundImageFix" result="effect1_dropShadow"/>
<feBlend mode="normal" in="SourceGraphic" in2="effect1_dropShadow" result="shape"/>
</filter>
</defs>
</svg>
