<svg width="512" height="512" xmlns="http://www.w3.org/2000/svg">

 <g>
  <title>background</title>
  <rect fill="none" id="canvas_background" height="402" width="582" y="-1" x="-1"/>
 </g>
 <g>
  <title>Layer 1</title>
  <path fill="#FFAD0F" id="svg_1" d="m485.359,91.058l-20.42,0l0,-50.242c0,-13.039 -10.576,-23.602 -23.61,-23.602l-339.457,0c-13.035,0 -23.615,10.563 -23.615,23.602l0,50.241l-39.028,0c-11.778,0 -21.41,9.641 -21.41,21.414l0,117.639c0,11.778 9.632,21.41 21.41,21.41l199.282,0c11.778,0 21.414,9.653 21.414,21.419l0,32.368c-6.762,7.919 -12.917,18.694 -12.917,18.694s-7.493,157.074 0,164.559c7.476,7.467 39.357,9.094 48.442,0c9.121,-9.111 0,-164.559 0,-164.559s-5.719,-10.01 -12.186,-17.825l0,-56.596c0,-11.782 -9.636,-21.409 -21.396,-21.409l-199.295,0c-11.765,0 -21.396,-9.641 -21.396,-21.41l0,-70.937c0,-11.788 9.632,-21.424 21.396,-21.424l15.684,0l0,50.255c0,13.025 10.58,23.588 23.615,23.588l339.457,0c13.034,0 23.61,-10.563 23.61,-23.588l0,-50.255l20.42,0c11.761,0.001 11.761,-23.342 0,-23.342z"/>
 </g>
</svg>