<svg width="506" height="357" viewBox="0 0 506 357" fill="none" xmlns="http://www.w3.org/2000/svg">
<path d="M497 149C536 295.5 433.205 331.5 299 331.5C164.795 331.5 4.49998 413.391 4.49998 282.5C47.5 160 -65.2052 0.5 69 0.5C203.205 0.5 441 11.5 497 149Z" fill="#CC44CC" fill-opacity="0.2"/>
<path d="M321.8 93.1667H273.267V77.9815C273.254 67.5027 264.905 59.013 254.6 59H187.4C177.095 59.013 168.746 67.5027 168.733 77.9815V93.1667H120.2C114.015 93.1667 109 98.2661 109 104.556V189.06C109.024 193.876 112.008 198.16 116.467 199.778V252.611C116.467 258.901 121.482 264 127.667 264H314.333C320.518 264 325.533 258.901 325.533 252.611V199.782C329.992 198.162 332.978 193.876 333 189.06V104.556C333 98.2661 327.985 93.1667 321.8 93.1667ZM176.2 77.9815C176.2 71.692 181.215 66.5926 187.4 66.5926H254.6C260.785 66.5926 265.8 71.692 265.8 77.9815V93.1667H258.333V77.9815C258.333 75.885 256.662 74.1852 254.6 74.1852H187.4C185.338 74.1852 183.667 75.885 183.667 77.9815V93.1667H176.2V77.9815ZM250.867 93.1667H191.133V81.7778H250.867V93.1667ZM318.067 252.611C318.067 254.708 316.395 256.407 314.333 256.407H127.667C125.605 256.407 123.933 254.708 123.933 252.611V201.083L206.067 212.602V222.241C206.067 228.53 211.082 233.63 217.267 233.63H224.733C230.918 233.63 235.933 228.53 235.933 222.241V212.602L318.067 201.083V252.611ZM228.467 222.241C228.467 224.337 226.795 226.037 224.733 226.037H217.267C215.205 226.037 213.533 224.337 213.533 222.241V199.463C213.533 197.366 215.205 195.667 217.267 195.667H224.733C226.795 195.667 228.467 197.366 228.467 199.463V222.241ZM325.533 189.06C325.535 190.953 324.166 192.558 322.323 192.823L321.288 192.968L235.933 204.937V199.463C235.933 193.173 230.918 188.074 224.733 188.074H217.267C211.082 188.074 206.067 193.173 206.067 199.463V204.937L119.68 192.823C117.837 192.56 116.465 190.955 116.467 189.06V104.556C116.467 102.459 118.138 100.759 120.2 100.759H321.8C323.862 100.759 325.533 102.459 325.533 104.556V189.06Z" fill="#CC44CC"/>
</svg>
